PathFileType	4	(X/Y/Z)	TRAIL_071_EP_01_markers.trc
DataRate	CameraRate	NumFrames	NumMarkers	Units	OrigDataRate	OrigDataStartFrame	OrigNumFrames
200	200	4	44	mm	200	102	270
Frame#	Time	RSH			LSH			C7			LELB			LWR			RELB			RWR			RASI			LASI			SACR			P1			P2			LTHLP			LTHLD			LTHAP			LTHAD			LLEPI			LPAT			LTIAP			LTIAD			LTILAT			LLMAL			LHEEL			LMFS			LMFL			LP5MT			LP1MT			LTOE			RTHLP			RTHLD			RTHAP			RTHAD			RLEPI			RPAT			RTIAP			RTIAD			RTILAT			RLMAL			RHEEL			RMFS			RMFL			RP5MT			RP1MT			RTOE			
		X1	Y1	Z1	X2	Y2	Z2	X3	Y3	Z3	X4	Y4	Z4	X5	Y5	Z5	X6	Y6	Z6	X7	Y7	Z7	X8	Y8	Z8	X9	Y9	Z9	X10	Y10	Z10	X11	Y11	Z11	X12	Y12	Z12	X13	Y13	Z13	X14	Y14	Z14	X15	Y15	Z15	X16	Y16	Z16	X17	Y17	Z17	X18	Y18	Z18	X19	Y19	Z19	X20	Y20	Z20	X21	Y21	Z21	X22	Y22	Z22	X23	Y23	Z23	X24	Y24	Z24	X25	Y25	Z25	X26	Y26	Z26	X27	Y27	Z27	X28	Y28	Z28	X29	Y29	Z29	X30	Y30	Z30	X31	Y31	Z31	X32	Y32	Z32	X33	Y33	Z33	X34	Y34	Z34	X35	Y35	Z35	X36	Y36	Z36	X37	Y37	Z37	X38	Y38	Z38	X39	Y39	Z39	X40	Y40	Z40	X41	Y41	Z41	X42	Y42	Z42	X43	Y43	Z43	X44	Y44	Z44
102	        0.5049999952	     1887.1015608311	     1456.0805559158	      197.0242857933	     1916.6951924562	     1477.6850938797	     -129.2208433151	     1817.1404898167	     1485.7860803604	       19.5234417915	     1883.4873139858	     1196.3475942612	     -303.6498129368	     2048.1949225068	     1167.3147678375	      -98.9815592766	     1695.9776580334	     1207.1578502655	      310.0223541260	     1913.1864756346	     1028.1243324280	      308.5868358612	     1919.4128215313	      966.3481712341	      155.9562683105	     1959.8305672407	      969.5815443993	     -101.1861562729	     1760.3084445000	     1006.3415765762	       10.9547972679	     1766.2919163704	     1007.0194005966	      -33.7862372398	     1758.6896419525	     1007.3782205582	       53.5586476326	     1804.8953413963	      685.8868002892	     -155.2460193634	     1778.2403826714	      578.4160494804	     -146.6602683067	     1902.6621878147	      646.9520926476	      -91.1560058594	     1862.0008826256	      545.8369851112	      -92.1213030815	     1738.8314902782	      493.7821328640	     -135.0296139717	     1789.2768681049	      429.2405247688	     -105.4317951202	     1597.9342460632	      398.8347053528	      -90.0585055351	     1491.5985465050	      390.8779323101	      -81.6306471825	     1531.0046076775	      464.0474319458	     -128.2104849815	     1344.1194295883	      425.7491528988	      -90.7999277115	     1310.4754686356	      471.2184667587	      -22.9330062866	     1324.1934180260	      299.6315956116	      -67.1663880348	     1258.9978575706	      339.2816185951	     -130.8723688126	     1251.8969774246	      279.6457409859	     -147.1426486969	     1280.8366417885	      258.5167884827	      -46.9329953194	     1283.9491963387	      225.9186357260	      -84.3116641045	     1923.9674210548	      698.4033584595	      186.4647865295	     1958.5035294294	      609.4089746475	      162.1541380882	     2018.8039392233	      737.4449968338	      115.2973175049	     2045.1427176595	      654.1972756386	      100.1296043396	     1994.3808913231	      501.0882616043	      139.2032504082	     2066.1783665419	      501.3581514359	       94.8313474655	     2049.3252351880	      353.1857728958	       96.2348580360	     2043.4682220221	      243.3940023184	       82.4382901192	     1980.1576137543	      303.9351999760	      140.9254074097	     1987.1053844690	       96.0659086704	       92.9641127586	     1931.7162632942	       62.4083504081	       41.7853593826	     2107.0806868374	       84.5259428024	       41.8952703476	     2089.7198915482	       36.6600342095	      126.2429952621	     2146.3811136782	       34.9608249962	      127.4170875549	     2158.9611009695	       40.7022796571	       21.7195749283	     2206.6465727985	       50.9953089058	       53.8650155067
103	        0.5099999905	     1905.2523970604	     1451.0726928711	      198.2313394547	     1933.9954555035	     1473.1343984604	     -128.7554502487	     1834.7608745098	     1480.9076786041	       20.8731293678	     1897.3702490330	     1192.8093433380	     -304.2138516903	     2063.3495226502	     1156.8330526352	     -101.2346148491	     1717.7104651928	     1199.0269422531	      312.3183250427	     1936.8029385805	     1022.4267244339	      308.9089989662	     1934.6382170916	      962.3870849609	      156.4344167709	     1976.8831282854	      964.8025035858	     -100.2490520477	     1775.4914462566	     1002.1085739136	       11.1690163612	     1782.0936143398	     1002.3654699326	      -33.6103439331	     1773.8103270531	     1003.4731626511	       53.8703799248	     1825.6456255913	      679.6261668205	     -155.3785800934	     1801.3842403889	      571.7524290085	     -147.1806168556	     1923.9627122879	      642.3884034157	      -91.2199616432	     1885.5306208134	      540.5113101006	      -92.8843617439	     1764.0604376793	      486.8768155575	     -135.8228921890	     1814.7553801537	      422.8063523769	     -106.3020229340	     1622.2564578056	      394.8921561241	      -90.2836918831	     1516.0095095634	      389.3935978413	      -81.7146897316	     1556.6527247429	      461.2655639648	     -128.7491917610	     1369.5622086525	      427.6795387268	      -90.3228521347	     1336.3263010979	      473.4136462212	      -22.1377015114	     1348.3726382256	      301.8739521503	      -67.1072602272	     1283.6034297943	      342.4786627293	     -130.6709647179	     1275.8967876434	      282.9827070236	     -147.2133994102	     1304.6352267265	      261.0485553741	      -47.1221208572	     1307.4694871902	      228.6694943905	      -84.6908092499	     1938.8627111912	      695.8530545235	      187.2236728668	     1975.0966131687	      606.3631176949	      161.9789004326	     2038.1983146071	      736.2638711929	      116.4727210999	     2062.9978254437	      650.0224471092	      100.9358763695	     2012.3025476933	      498.9033937454	      140.0608420372	     2084.5737755299	      498.6495971680	       95.1054692268	     2064.5812302828	      349.3237495422	       94.6909189224	     2053.2033592463	      240.2328699827	       77.9170393944	     1995.1424747705	      304.0668070316	      140.2182579041	     1987.8550767899	       98.2543900609	       89.1617536545	     1931.9953173399	       63.4096786380	       39.7377610207	     2107.1718521416	       83.9036777616	       37.8132462502	     2089.5530283451	       39.0515811741	      123.9596605301	     2145.5254908651	       36.4118739963	      126.3631582260	     2157.7732772566	       40.6391806901	       18.7097787857	     2203.2767832279	       55.9240691364	       53.1346201897
104	        0.5149999857	     1923.4817177057	     1446.1803436279	      199.5078325272	     1951.3112604618	     1468.7989950180	     -128.4629702568	     1852.2609770298	     1475.9927988052	       22.3144292831	     1911.1388921738	     1189.1889572144	     -304.7285377979	     2078.2991945744	     1146.2526321411	     -103.7523150444	     1739.7303283215	     1190.4271841049	      314.7160410881	     1960.8640223742	     1016.7090892792	      309.0608119965	     1949.5061635971	      958.7100148201	      156.6169857979	     1993.8273131847	      959.5424532890	      -99.3896126747	     1790.2575135231	      998.1004595757	       11.3573074341	     1797.7339327335	      997.8870153427	      -33.4119796753	     1788.5761559010	      999.9336004257	       54.1141033173	     1846.5058803558	      673.3277440071	     -155.2541255951	     1824.7256278992	      565.0989413261	     -147.4949717522	     1945.4471766949	      637.9283666611	      -91.3777351379	     1909.3521535397	      535.2858901024	      -93.6595797539	     1789.6431088448	      480.1597297192	     -136.3429427147	     1840.5972123146	      416.7334437370	     -106.9053411484	     1647.4840044975	      390.7594084740	      -90.8266901970	     1541.1410927773	      387.8339827061	      -81.8311572075	     1582.9242467880	      458.3300054073	     -129.2460560799	     1395.7642316818	      429.1959702969	      -90.0068879128	     1362.8888130188	      475.1613140106	      -21.5786695480	     1373.5082149506	      303.6095201969	      -67.0533180237	     1309.1447353363	      345.0329005718	     -130.5770277977	     1300.9151816368	      285.6758236885	     -147.3294496536	     1329.3727636337	      263.1526589394	      -47.2540855408	     1332.0189118385	      230.8203428984	      -84.9434733391	     1953.5539001226	      694.0335035324	      188.0299448967	     1992.5058633089	      605.7138442993	      161.6685390472	     2055.3590804338	      733.4932684898	      118.1827783585	     2080.3414285183	      644.9136137962	      102.2281646729	     2032.1660190821	      497.8996813297	      140.4159069061	     2103.8347557187	      498.6358880997	       93.9474701881	     2080.5249586701	      348.5256731510	       89.8056030273	     2062.7504214644	      240.7674789429	       72.1482038498	     2012.5474333763	      305.5069744587	      138.9353871346	     1989.4434660673	      101.1429876089	       87.1431827545	     1932.7362179756	       64.9763643742	       39.0043258667	     2108.7399609387	       82.6718285680	       36.0938310623	     2090.5509218574	       39.6043211222	      123.1179833412	     2146.4471854270	       36.1705198884	      125.5245208740	     2159.2010969762	       37.9668399692	       17.7355408669	     2205.3628638387	       51.4582656324	       51.8260002136
105	        0.5200000405	     1941.7341500521	     1441.5553808212	      200.9903788567	     1968.6006158590	     1464.7983312607	     -128.6114454269	     1869.5789575577	     1471.0929393768	       23.8082408905	     1924.7142523527	     1185.5168342590	     -305.1724433899	     2092.9835066199	     1135.4190111160	     -106.4746975899	     1762.1304988861	     1181.8109750748	      317.3481822014	     1985.1941466331	     1011.0340118408	      309.0268373489	     1962.8295153379	      955.9479355812	      157.1462750435	     2009.9424719810	      954.2410969734	      -98.0985760689	     1805.2002787590	      994.6227669716	       11.0273957253	     1813.0727708340	      993.6423897743	      -33.6198210716	     1803.6358356476	      997.3351359367	       53.5707473755	     1867.5474524498	      667.0963764191	     -155.0052762032	     1848.0996191502	      558.6067438126	     -147.4967002869	     1967.0704007149	      633.4264278412	      -91.3112163544	     1933.3892315626	      530.2476286888	      -94.1007137299	     1815.5155181885	      473.7548232079	     -136.6192698479	     1866.9583499432	      411.2021327019	     -107.1015000343	     1673.1055676937	      386.8554532528	      -91.1465287209	     1566.9969916344	      385.9243094921	      -81.6625356674	     1609.8233461380	      455.2282989025	     -129.7386884689	     1422.7419495583	      430.1279187202	      -89.8042321205	     1390.0279998779	      476.4551520348	      -21.3348269463	     1399.5038866997	      304.9063086510	      -66.9601559639	     1335.5289697647	      346.9015359879	     -130.5593252182	     1326.9749879837	      287.5767350197	     -147.3986506462	     1355.0578951836	      264.7624015808	      -47.3179221153	     1357.5292825699	      232.4509620667	      -85.0728750229	     1969.7559624910	      692.7872896194	      187.7803802490	     2010.0605934858	      605.9678196907	      161.8209481239	     2070.4134926200	      729.7227382660	      120.9025382996	     2097.1047729254	      640.1714086533	      103.9231419563	     2053.4856915474	      498.5494315624	      139.2728090286	     2122.7539032698	      500.0116229057	       91.6476845741	     2094.3850055337	      348.8326370716	       84.1665863991	     2071.3414028287	      242.0569509268	       67.5649046898	     2029.4604301453	      307.6622486115	      138.3558511734	     1993.2413548231	      103.1814962626	       86.7251753807	     1934.2129677534	       66.8204799294	       38.8262271881	     2111.2002395093	       81.5708115697	       35.9923839569	     2091.6876718402	       39.1307249665	      123.2044100761	     2147.9509398341	       34.5444045961	      126.0653734207	     2161.4572613034	       36.0644981265	       18.7812447548	     2208.4305994213	       45.8040274680	       52.8221726418
